# xmcd CD database file
#
# Track frame offsets:
#	150
#	23278
#	42952
#	54483
#	72668
#	85753
#	101580
#	117040
#	136555
#	147390
#	160978
#	178512
#	201693
#
# Disc length: 2896 seconds
#
# Revision: 0
# Processed by: cddbd v1.5PL3 Copyright (c) Steve Scherf et al.
# Submitted via: CDex 1.50beta8
#
DISCID=af0b4e0d
DTITLE=Clementine - 30ﾟC
DYEAR=2002
DGENRE=Latin
TTITLE0=Les Champ-Elysees-Stephane Pompougnac Remix-
TTITLE1=This Masquerade
TTITLE2=Don`t Let Me Lose This Dream
TTITLE3=Oublie-Moi [It`s Too Late]
TTITLE4=Diego
TTITLE5=Les Champ-Elysees
TTITLE6=Summer In The City
TTITLE7=Toute La Pluie Tombe Sur Moi [Raindrops Keep Fallin` On My Head]
TTITLE8=Amour Fou [Crazy Love]
TTITLE9=Fire And Rain
TTITLE10=Summer In The City-Radio Favela Remix-
TTITLE11=Corazon-Radio Favela Remix-
TTITLE12=Avec Toi Le Temps Sevanouit
EXTD=YEAR: 2002
EXTT0=
EXTT1=
EXTT2=
EXTT3=
EXTT4=
EXTT5=
EXTT6=
EXTT7=
EXTT8=
EXTT9=
EXTT10=
EXTT11=
EXTT12=
PLAYORDER=
